<svg width="40" height="40" viewBox="0 0 40 40" fill="none" xmlns="http://www.w3.org/2000/svg">
<path d="M6.66669 9.99998C6.66669 9.55795 6.84228 9.13403 7.15484 8.82147C7.4674 8.50891 7.89133 8.33331 8.33335 8.33331H31.6667C32.1087 8.33331 32.5326 8.50891 32.8452 8.82147C33.1578 9.13403 33.3333 9.55795 33.3333 9.99998C33.3333 10.442 33.1578 10.8659 32.8452 11.1785C32.5326 11.4911 32.1087 11.6666 31.6667 11.6666H8.33335C7.89133 11.6666 7.4674 11.4911 7.15484 11.1785C6.84228 10.8659 6.66669 10.442 6.66669 9.99998Z" fill="white"/>
<path d="M6.66669 30C6.66669 29.558 6.84228 29.134 7.15484 28.8215C7.4674 28.5089 7.89133 28.3333 8.33335 28.3333H31.6667C32.1087 28.3333 32.5326 28.5089 32.8452 28.8215C33.1578 29.134 33.3333 29.558 33.3333 30C33.3333 30.442 33.1578 30.8659 32.8452 31.1785C32.5326 31.4911 32.1087 31.6666 31.6667 31.6666H8.33335C7.89133 31.6666 7.4674 31.4911 7.15484 31.1785C6.84228 30.8659 6.66669 30.442 6.66669 30Z" fill="white"/>
<path d="M18.3334 18.3333C17.8913 18.3333 17.4674 18.5089 17.1548 18.8215C16.8423 19.134 16.6667 19.558 16.6667 20C16.6667 20.442 16.8423 20.8659 17.1548 21.1785C17.4674 21.4911 17.8913 21.6666 18.3334 21.6666H31.6667C32.1087 21.6666 32.5326 21.4911 32.8452 21.1785C33.1578 20.8659 33.3334 20.442 33.3334 20C33.3334 19.558 33.1578 19.134 32.8452 18.8215C32.5326 18.5089 32.1087 18.3333 31.6667 18.3333H18.3334Z" fill="white"/>
</svg>
