<svg width="27" height="27" viewBox="0 0 27 27" fill="none" xmlns="http://www.w3.org/2000/svg">
<path d="M26.7064 25.293L21.3036 19.8901C23.2116 17.6179 24.1687 14.6968 23.9755 11.7361C23.7822 8.77534 22.4535 6.00348 20.2663 3.99855C18.0792 1.99361 15.2025 0.910387 12.2361 0.974759C9.26977 1.03913 6.44277 2.24613 4.34466 4.34406C2.24655 6.44199 1.03929 9.26888 0.974659 12.2352C0.910025 15.2016 1.993 18.0784 3.99774 20.2657C6.00248 22.453 8.77422 23.782 11.735 23.9755C14.6957 24.1691 17.6168 23.2122 19.8892 21.3044L25.2921 26.7073C25.4797 26.8948 25.734 27.0002 25.9992 27.0002C26.2645 27.0002 26.5188 26.8948 26.7064 26.7073C26.8939 26.5197 26.9993 26.2654 26.9993 26.0001C26.9993 25.7349 26.8939 25.4806 26.7064 25.293ZM2.99999 12.5C2.99999 10.6211 3.55715 8.78437 4.60103 7.2221C5.6449 5.65983 7.1286 4.44219 8.8645 3.72316C10.6004 3.00413 12.5105 2.816 14.3533 3.18256C16.1962 3.54912 17.8889 4.4539 19.2175 5.7825C20.5461 7.1111 21.4509 8.80384 21.8175 10.6467C22.184 12.4895 21.9959 14.3996 21.2768 16.1355C20.5578 17.8714 19.3402 19.3551 17.7779 20.399C16.2156 21.4429 14.3789 22 12.5 22C9.98131 21.9972 7.5666 20.9954 5.78562 19.2144C4.00464 17.4334 3.00284 15.0187 2.99999 12.5Z" fill="#4B4B4B"/>
</svg>
